<svg id="Layer_1" data-name="Layer 1" xmlns="http://www.w3.org/2000/svg" viewBox="0 0 234 60"><defs><style>.cls-1{fill:#fac8af;}.cls-2{fill:none;}.cls-3{fill:#002446;}.cls-4{fill:#fff;}</style></defs><title>wiktor-logo-typ-inverse</title><path class="cls-1" d="M42.34,37.77C39.57,33,39.57,25.6,39.57,25.6,34,29,26.91,29,23.32,28.65a1.34,1.34,0,0,1-1.07-2,8.37,8.37,0,0,0,1-4.37c-5.32,5.11-12.68,3.28-12.68,3.28.68,4.63-1.43,9.5-2.8,12.07a1.35,1.35,0,0,1-2.3.11c-.5-.75-.95-1.47-1.36-2.19-1.57.5-2.83,2.26-1.67,6,2.05,6.61,7.28,5.64,7.28,5.64C13.52,56.52,20.46,58,25.05,58s11.53-1.52,15.38-10.82c0,0,5.22,1,7.27-5.64,1.16-3.73-.09-5.49-1.66-6-.43.73-.91,1.47-1.42,2.23A1.35,1.35,0,0,1,42.34,37.77Z"/><path class="cls-2" d="M17,33.05a4.52,4.52,0,1,0,4.51,4.52A4.53,4.53,0,0,0,17,33.05Zm.21,6.36a1.84,1.84,0,1,1,1.84-1.84A1.84,1.84,0,0,1,17.21,39.41Z"/><path class="cls-2" d="M33.11,33.05a4.52,4.52,0,1,0,4.51,4.52A4.53,4.53,0,0,0,33.11,33.05ZM33,39.41a1.84,1.84,0,1,1,1.83-1.84A1.84,1.84,0,0,1,33,39.41Z"/><path class="cls-3" d="M49.06,35.46A4.74,4.74,0,0,0,47,33.87h0c6.75-12.91.8-21.38-7.28-24,0,0-4.36-9.87-18.89-7.59C12.07,3.67,7.7,3.37,5.61,2.93A1.33,1.33,0,0,0,4,4.51,7.32,7.32,0,0,0,8.3,9.89s-13.81,7.17-5.18,24h0A4.81,4.81,0,0,0,1,35.46c-.83,1.12-1.59,3.2-.51,6.7,1.83,5.89,6,6.9,7.89,7C12.62,58.09,19.72,60,25.05,60s12.43-1.91,16.63-10.8c1.89-.14,6.06-1.15,7.89-7C50.65,38.66,49.89,36.59,49.06,35.46ZM47.7,41.58c-2.05,6.61-7.27,5.64-7.27,5.64C36.58,56.52,29.65,58,25.05,58S13.52,56.52,9.68,47.22c0,0-5.23,1-7.28-5.64-1.16-3.73.1-5.49,1.67-6,.41.72.86,1.44,1.36,2.19a1.35,1.35,0,0,0,2.3-.11c1.37-2.57,3.48-7.44,2.8-12.07,0,0,7.36,1.83,12.68-3.28a8.37,8.37,0,0,1-1,4.37,1.34,1.34,0,0,0,1.07,2c3.59.3,10.68.34,16.25-3,0,0,0,7.37,2.77,12.17a1.35,1.35,0,0,0,2.28.06c.51-.76,1-1.5,1.42-2.23C47.61,36.09,48.86,37.85,47.7,41.58Z"/><path class="cls-3" d="M33.11,31.1A6.47,6.47,0,0,0,26.83,36a4.47,4.47,0,0,0-3.56,0,6.46,6.46,0,1,0,.16,2.21,2.54,2.54,0,0,1,3.24,0,6.47,6.47,0,1,0,6.44-7.14ZM17,42.09a4.52,4.52,0,1,1,4.51-4.52A4.53,4.53,0,0,1,17,42.09Zm16.11,0a4.52,4.52,0,1,1,4.51-4.52A4.53,4.53,0,0,1,33.11,42.09Z"/><path class="cls-3" d="M17.21,35.73a1.84,1.84,0,1,0,1.84,1.84A1.85,1.85,0,0,0,17.21,35.73Z"/><path class="cls-3" d="M33,35.73a1.84,1.84,0,1,0,1.83,1.84A1.84,1.84,0,0,0,33,35.73Z"/><path class="cls-3" d="M24.22,45.84a2.62,2.62,0,0,0,1.31.35,3.13,3.13,0,0,0,1.62-.48,1,1,0,0,0-1-1.67,1,1,0,0,1-1,.1.7.7,0,0,1-.36-.59,1,1,0,0,0-2,0A2.64,2.64,0,0,0,24.22,45.84Z"/><path class="cls-3" d="M32.42,46.1a1,1,0,0,0-1.35.3C28.94,49.76,25,49.48,22.88,49a1,1,0,1,0-.42,1.91,13.17,13.17,0,0,0,2.85.32,8.38,8.38,0,0,0,7.41-3.8A1,1,0,0,0,32.42,46.1Z"/><path class="cls-4" d="M17,33.05a4.52,4.52,0,1,0,4.51,4.52A4.53,4.53,0,0,0,17,33.05Zm.21,6.36a1.84,1.84,0,1,1,1.84-1.84A1.84,1.84,0,0,1,17.21,39.41Z"/><path class="cls-4" d="M33.11,33.05a4.52,4.52,0,1,0,4.51,4.52A4.53,4.53,0,0,0,33.11,33.05ZM33,39.41a1.84,1.84,0,1,1,1.83-1.84A1.84,1.84,0,0,1,33,39.41Z"/><path class="cls-4" d="M183.64,47q-3.85-3.35-4.2-9.52-.06-.75-.06-2.58c0-1.22,0-2.07.06-2.57a12.8,12.8,0,0,1,4.31-9.46q4-3.41,10.95-3.4t11,3.4A12.81,12.81,0,0,1,210,32.29c.07,1,.11,1.85.11,2.57s0,1.59-.11,2.58q-.34,6.16-4.2,9.52T194.7,50.3Q187.5,50.3,183.64,47Zm14.55-5.32a8,8,0,0,0,1.31-4.49c0-.38.06-1.14.06-2.29s0-1.9-.06-2.28a8,8,0,0,0-1.31-4.46,4.83,4.83,0,0,0-7,0,8,8,0,0,0-1.31,4.46l-.06,2.28.06,2.29a8,8,0,0,0,1.31,4.49,4.9,4.9,0,0,0,7,0Z"/><path class="cls-4" d="M100,20H93A1.92,1.92,0,0,0,91,21.32L86.82,34.25,82.61,21.32A1.93,1.93,0,0,0,80.67,20H75.31a1.93,1.93,0,0,0-1.94,1.37L69.16,34.25,64.94,21.32A1.92,1.92,0,0,0,63,20H55.94a1.3,1.3,0,0,0-1,.4,1.31,1.31,0,0,0-.4,1l.06.45,9.06,26.39a1.82,1.82,0,0,0,1.88,1.42h6.49a1.94,1.94,0,0,0,1.88-1.42l4-12,4.05,12a1.94,1.94,0,0,0,1.88,1.42h6.49a1.82,1.82,0,0,0,1.88-1.42l9.06-26.39.06-.45a1.31,1.31,0,0,0-.4-1A1.3,1.3,0,0,0,100,20Z"/><path class="cls-4" d="M113.64,20h-7.18a1.57,1.57,0,0,0-1.54,1.54V48a1.55,1.55,0,0,0,1.54,1.54h7.18A1.55,1.55,0,0,0,115.18,48V21.49A1.57,1.57,0,0,0,113.64,20Z"/><path class="cls-4" d="M140.07,33.74l10.14-11.28a2.64,2.64,0,0,0,.51-.63,1.07,1.07,0,0,0,.12-.51,1.35,1.35,0,0,0-.4-1,1.31,1.31,0,0,0-1-.4h-8.38a3.05,3.05,0,0,0-2.22,1l-7.52,8.21v-16a1.57,1.57,0,0,0-1.54-1.54h-7.18a1.57,1.57,0,0,0-1.54,1.54V48a1.55,1.55,0,0,0,1.54,1.54h7.18A1.55,1.55,0,0,0,131.35,48V38.41l9.06,10.2a3,3,0,0,0,2.34,1h8.49a1.35,1.35,0,0,0,1.36-1.36,1.77,1.77,0,0,0-.57-1.09Z"/><path class="cls-4" d="M233.54,20.41a1.44,1.44,0,0,0-1.08-.46H231a10.51,10.51,0,0,0-7.58,2.85V21.49A1.55,1.55,0,0,0,221.91,20h-6.62a1.55,1.55,0,0,0-1.53,1.54V48a1.54,1.54,0,0,0,1.53,1.54h7.18A1.54,1.54,0,0,0,224,48V34a5.33,5.33,0,0,1,1.34-3.91,5.31,5.31,0,0,1,3.91-1.34h3.2A1.55,1.55,0,0,0,234,27.25V21.49A1.44,1.44,0,0,0,233.54,20.41Z"/><path class="cls-4" d="M110.05,5.65a5.55,5.55,0,0,0-3.92,1.51,4.84,4.84,0,0,0,0,7.26,5.83,5.83,0,0,0,7.85,0,4.88,4.88,0,0,0,0-7.26A5.54,5.54,0,0,0,110.05,5.65Z"/><path class="cls-4" d="M176.27,42.11a1.82,1.82,0,0,0-1.76-1.36h-4.63c-1.64,0-2.45-.91-2.45-2.73V28.78h5.76a1.49,1.49,0,0,0,1.08-.45,1.52,1.52,0,0,0,.46-1.08V21.49a1.48,1.48,0,0,0-.46-1.08,1.46,1.46,0,0,0-1.08-.46h-5.76V13.08a1.57,1.57,0,0,0-1.54-1.54h-7.18a1.55,1.55,0,0,0-1.54,1.54V20H154.7a1.55,1.55,0,0,0-1.54,1.54v5.76a1.54,1.54,0,0,0,1.54,1.53h2.47v9.58a10.67,10.67,0,0,0,3.22,8.2,12.06,12.06,0,0,0,8.63,3h7.33a1.45,1.45,0,0,0,1.41-1.81Z"/><path class="cls-4" d="M225.35,12.7a5.77,5.77,0,0,1-2.09-2.1,5.56,5.56,0,0,1-.78-2.88,5.57,5.57,0,0,1,.78-2.89,5.77,5.77,0,0,1,2.09-2.1,5.81,5.81,0,0,1,5.78,0,5.77,5.77,0,0,1,2.09,2.1A5.57,5.57,0,0,1,234,7.72a5.56,5.56,0,0,1-.78,2.88,5.77,5.77,0,0,1-2.09,2.1,5.74,5.74,0,0,1-5.78,0Zm5.29-.77a4.9,4.9,0,0,0,1.75-1.78,4.89,4.89,0,0,0,0-4.87,4.9,4.9,0,0,0-1.75-1.78,4.69,4.69,0,0,0-4.8,0,4.9,4.9,0,0,0-1.75,1.78,4.89,4.89,0,0,0,0,4.87,4.9,4.9,0,0,0,1.75,1.78,4.63,4.63,0,0,0,4.8,0Zm-4.46-1.4a.32.32,0,0,1-.1-.25V5.12a.34.34,0,0,1,.35-.35h2a2.6,2.6,0,0,1,1.58.44,1.66,1.66,0,0,1,.6,1.42,1.79,1.79,0,0,1-.31,1,1.67,1.67,0,0,1-.85.63l1.11,1.74a.44.44,0,0,1,.06.23.36.36,0,0,1-.09.24.3.3,0,0,1-.26.11h-.22a.52.52,0,0,1-.47-.31l-1.15-1.84h-1.42v1.8a.36.36,0,0,1-.1.25.33.33,0,0,1-.26.1h-.27A.32.32,0,0,1,226.18,10.53Zm2.27-3q1.23,0,1.23-.93t-1.23-.93h-1.39V7.56Z"/></svg>