<svg id="Layer_1" data-name="Layer 1" xmlns="http://www.w3.org/2000/svg" viewBox="0 0 60 60"><defs><style>.cls-1{fill:#fac8af;}.cls-2{fill:#fff;}</style></defs><title>wiktor-head-white-skin</title><path class="cls-1" d="M50.89,35.6c-.43.73-.9,1.47-1.42,2.23a1.35,1.35,0,0,1-2.28-.06C44.42,33,44.42,25.6,44.42,25.6,38.84,29,31.74,29,28.14,28.65a1.34,1.34,0,0,1-1.06-2,8.49,8.49,0,0,0,1-4.37c-5.33,5.11-12.7,3.28-12.7,3.28.68,4.63-1.43,9.5-2.8,12.07a1.35,1.35,0,0,1-2.31.11c-.49-.75-.94-1.47-1.36-2.19-1.57.5-2.82,2.26-1.67,6,2.06,6.61,7.29,5.64,7.29,5.64C18.34,56.52,25.28,58,29.88,58s11.55-1.52,15.39-10.82c0,0,5.24,1,7.29-5.64C53.71,37.85,52.46,36.09,50.89,35.6ZM37.56,47.45a8.4,8.4,0,0,1-7.42,3.8,13.17,13.17,0,0,1-2.85-.32,1,1,0,0,1-.75-1.16A1,1,0,0,1,27.7,49c2.15.46,6.07.74,8.21-2.62a1,1,0,1,1,1.65,1.05Zm-9.87-3.9a1,1,0,0,1,2,0,.7.7,0,0,0,.36.59,1,1,0,0,0,1-.1,1,1,0,1,1,1,1.67,3.13,3.13,0,0,1-1.62.48,2.69,2.69,0,0,1-2.67-2.64Zm10.26.5a6.49,6.49,0,0,1-6.45-5.81,2.54,2.54,0,0,0-3.24,0A6.5,6.5,0,1,1,28.1,36a4.47,4.47,0,0,1,3.56,0,6.47,6.47,0,1,1,6.29,8Z"/><path class="cls-2" d="M13.11,9.89A7.32,7.32,0,0,1,8.83,4.51a1.33,1.33,0,0,1,1.59-1.58c2.08.44,6.46.74,15.25-.63C40.21,0,44.58,9.89,44.58,9.89c8.09,2.6,14,11.07,7.28,24h0c5.17-3.74,5.24-12.3,4-15.81a16.17,16.17,0,0,0-10-9.77C44.63,6.06,40.13,0,29.85,0a29.25,29.25,0,0,0-4.48.36,70.79,70.79,0,0,1-10.52,1,19.64,19.64,0,0,1-4-.33,3.33,3.33,0,0,0-.7-.07A3.28,3.28,0,0,0,7.58,2.15,3.32,3.32,0,0,0,6.91,4.9a9.33,9.33,0,0,0,2.75,5,17.84,17.84,0,0,0-6,9.23c-1.2,4.67.43,12.33,4.26,14.72h0C-.71,17.06,13.11,9.89,13.11,9.89Z"/><path class="cls-2" d="M21.82,33.05a4.52,4.52,0,1,0,4.52,4.52A4.53,4.53,0,0,0,21.82,33.05ZM22,39.41a1.84,1.84,0,1,1,1.84-1.84A1.84,1.84,0,0,1,22,39.41Z"/><path class="cls-2" d="M38,33.05a4.52,4.52,0,1,0,4.51,4.52A4.52,4.52,0,0,0,38,33.05Zm-.17,6.36a1.84,1.84,0,1,1,1.84-1.84A1.84,1.84,0,0,1,37.78,39.41Z"/></svg>