<svg id="Layer_1" data-name="Layer 1" xmlns="http://www.w3.org/2000/svg" viewBox="0 0 80 80"><defs><style>.cls-1{fill:#002446;}.cls-2{fill:#00aeff;}.cls-3{fill:#fac8af;}.cls-4{fill:#fff;}</style></defs><title>wiktor-head-white-skin copy</title><rect class="cls-1" width="80" height="80" rx="21.35"/><path class="cls-2" d="M23,71a.29.29,0,0,1-.1-.23V62.18a.32.32,0,0,1,.09-.24.3.3,0,0,1,.23-.09h3.21q3.89,0,4,3.58c0,.5,0,.85,0,1s0,.51,0,1a3.66,3.66,0,0,1-1,2.71,4.12,4.12,0,0,1-2.9.88H23.23A.29.29,0,0,1,23,71Zm3.43-1.44A2.2,2.2,0,0,0,28,69.05a2.32,2.32,0,0,0,.51-1.62q0-.8,0-1c0-.14,0-.47,0-1A2.18,2.18,0,0,0,28,63.88a2.22,2.22,0,0,0-1.62-.51h-1.6v6.16Z"/><path class="cls-2" d="M32.77,70.28a3.64,3.64,0,0,1-1.05-2.7c0-.25,0-.62,0-1.11s0-.88,0-1.14a3.63,3.63,0,0,1,1.08-2.68,4,4,0,0,1,2.78-.94,4,4,0,0,1,2.77.94,3.56,3.56,0,0,1,1.08,2.68q0,.77,0,1.14c0,.23,0,.61,0,1.11a3.54,3.54,0,0,1-1.06,2.7,4,4,0,0,1-2.79.91A4,4,0,0,1,32.77,70.28ZM37,69.14a2.35,2.35,0,0,0,.56-1.62c0-.53,0-.88,0-1.07s0-.55,0-1.06A2.39,2.39,0,0,0,37,63.77a1.87,1.87,0,0,0-1.38-.53,1.9,1.9,0,0,0-1.4.53,2.34,2.34,0,0,0-.55,1.62c0,.25,0,.61,0,1.06s0,.81,0,1.07a2.29,2.29,0,0,0,.55,1.61,2.12,2.12,0,0,0,2.79,0Z"/><path class="cls-2" d="M41.79,70.26a3.6,3.6,0,0,1-1.06-2.64c0-.23,0-.62,0-1.15s0-.94,0-1.19a3.62,3.62,0,0,1,1.06-2.62,3.93,3.93,0,0,1,2.81-.95,4.79,4.79,0,0,1,2,.41A3.15,3.15,0,0,1,48,63.22a2.76,2.76,0,0,1,.5,1.56v0a.21.21,0,0,1-.08.17.29.29,0,0,1-.19.08H46.94A.35.35,0,0,1,46.7,65a.57.57,0,0,1-.13-.25,1.84,1.84,0,0,0-.68-1.15,2.21,2.21,0,0,0-1.29-.34c-1.26,0-1.91.7-2,2.11,0,.23,0,.6,0,1.09s0,.86,0,1.12c0,1.4.7,2.1,2,2.1a2.27,2.27,0,0,0,1.28-.33,1.86,1.86,0,0,0,.69-1.15.62.62,0,0,1,.13-.26.34.34,0,0,1,.24-.07h1.28a.26.26,0,0,1,.2.08.2.2,0,0,1,.07.19,2.79,2.79,0,0,1-.5,1.57,3.22,3.22,0,0,1-1.35,1.1,4.79,4.79,0,0,1-2,.4A4,4,0,0,1,41.79,70.26Z"/><path class="cls-2" d="M51.31,70.84A3,3,0,0,1,50,69.9a2.24,2.24,0,0,1-.46-1.26.27.27,0,0,1,.08-.19.25.25,0,0,1,.2-.09h1.2a.35.35,0,0,1,.23.07.59.59,0,0,1,.17.18,1.35,1.35,0,0,0,.6.75,2.37,2.37,0,0,0,1.29.3,2.47,2.47,0,0,0,1.38-.31.93.93,0,0,0,.47-.84.81.81,0,0,0-.24-.6,2,2,0,0,0-.71-.41c-.32-.12-.8-.26-1.43-.43a5.55,5.55,0,0,1-2.28-1,2.16,2.16,0,0,1-.72-1.74A2.31,2.31,0,0,1,50.23,63a2.72,2.72,0,0,1,1.2-.94,4.53,4.53,0,0,1,1.83-.35,4.28,4.28,0,0,1,1.89.39,3.11,3.11,0,0,1,1.21.95,2.17,2.17,0,0,1,.44,1.14.29.29,0,0,1-.08.19.25.25,0,0,1-.2.09H55.27a.39.39,0,0,1-.39-.24,1.06,1.06,0,0,0-.52-.71,2.09,2.09,0,0,0-1.1-.28,2,2,0,0,0-1.14.28.89.89,0,0,0-.42.8.85.85,0,0,0,.21.59,1.71,1.71,0,0,0,.66.42,12.21,12.21,0,0,0,1.31.4,8.71,8.71,0,0,1,1.86.59,2.47,2.47,0,0,1,1,.83,2.27,2.27,0,0,1,.33,1.28,2.42,2.42,0,0,1-.47,1.48,2.93,2.93,0,0,1-1.32,1,6,6,0,0,1-4,0Z"/><path class="cls-3" d="M56.56,38.09c-.34.58-.72,1.17-1.13,1.77a1.07,1.07,0,0,1-1.8,0C51.45,36,51.45,30.2,51.45,30.2c-4.4,2.67-10,2.64-12.84,2.41a1.06,1.06,0,0,1-.84-1.55,6.64,6.64,0,0,0,.76-3.45c-4.21,4-10,2.59-10,2.59.54,3.66-1.13,7.5-2.21,9.53a1.06,1.06,0,0,1-1.82.08c-.39-.58-.75-1.16-1.07-1.72-1.24.39-2.23,1.78-1.32,4.73,1.62,5.22,5.75,4.45,5.75,4.45,3,7.35,8.51,8.55,12.14,8.55s9.11-1.2,12.14-8.55c0,0,4.13.77,5.75-4.45C58.78,39.87,57.79,38.48,56.56,38.09ZM46,47.45a6.61,6.61,0,0,1-5.85,3,10.58,10.58,0,0,1-2.25-.26.76.76,0,0,1-.59-.91.78.78,0,0,1,.91-.6c1.69.37,4.79.59,6.48-2.07a.77.77,0,0,1,1.3.83Zm-7.79-3.08a.78.78,0,0,1,1.55,0,.56.56,0,0,0,.28.47.74.74,0,0,0,.76-.08.77.77,0,1,1,.8,1.32,2.52,2.52,0,0,1-1.28.38,2.1,2.1,0,0,1-2.11-2.09Zm8.09.4a5.12,5.12,0,0,1-5.08-4.59,2,2,0,0,0-2.56,0,5.12,5.12,0,1,1-.12-1.74,3.52,3.52,0,0,1,1.4-.3,3.57,3.57,0,0,1,1.41.3,5.1,5.1,0,1,1,5,6.33Z"/><path class="cls-4" d="M33.62,36.08a3.57,3.57,0,1,0,3.57,3.57A3.58,3.58,0,0,0,33.62,36.08Zm.17,5a1.46,1.46,0,1,1,1.45-1.46A1.45,1.45,0,0,1,33.79,41.11Z"/><path class="cls-4" d="M46.34,36.08a3.57,3.57,0,1,0,3.57,3.57A3.58,3.58,0,0,0,46.34,36.08Zm-.12,5a1.46,1.46,0,1,1,1.45-1.46A1.46,1.46,0,0,1,46.22,41.11Z"/><path class="cls-4" d="M60.5,24.25a12.71,12.71,0,0,0-7.85-7.72C51.62,14.76,48.07,10,40,10a21.93,21.93,0,0,0-3.54.29,56.14,56.14,0,0,1-8.3.77A15.32,15.32,0,0,1,25,10.78a2.58,2.58,0,0,0-2.56.9,2.61,2.61,0,0,0-.53,2.17,7.44,7.44,0,0,0,2.17,4,14,14,0,0,0-4.73,7.28c-.95,3.69.33,9.74,3.35,11.63h0c-6.82-13.26,4.09-18.93,4.09-18.93a5.8,5.8,0,0,1-3.38-4.25,1.06,1.06,0,0,1,1.26-1.25c1.64.35,5.1.59,12-.5,11.47-1.79,14.91,6,14.91,6,6.39,2.05,11.08,8.74,5.75,18.94h0C61.4,33.77,61.46,27,60.5,24.25Z"/></svg>