<svg id="Layer_1" data-name="Layer 1" xmlns="http://www.w3.org/2000/svg" viewBox="0 0 200 60"><defs><style>.cls-1{fill:#002446;}.cls-2{fill:#fac8af;}.cls-3{fill:none;}.cls-4{fill:#fff;}</style></defs><title>wiktor-logo</title><path class="cls-1" d="M45.08,19.61H38A1.9,1.9,0,0,0,36.09,21L31.88,33.9,27.67,21a1.92,1.92,0,0,0-1.94-1.37H20.38A1.91,1.91,0,0,0,18.45,21L14.24,33.9,10,21A1.91,1.91,0,0,0,8.1,19.61H1a1.31,1.31,0,0,0-1,.4,1.34,1.34,0,0,0-.4,1l.06.45,9,26.37a1.83,1.83,0,0,0,1.87,1.43h6.49A2,2,0,0,0,19,47.8l4-12,4,12A2,2,0,0,0,29,49.23h6.49a1.84,1.84,0,0,0,1.88-1.43l9-26.37.06-.45a1.37,1.37,0,0,0-1.36-1.37Z"/><path class="cls-1" d="M58.65,19.61H51.48a1.47,1.47,0,0,0-1.08.45,1.52,1.52,0,0,0-.46,1.09V47.69a1.48,1.48,0,0,0,.46,1.08,1.44,1.44,0,0,0,1.08.46h7.17a1.44,1.44,0,0,0,1.08-.46,1.48,1.48,0,0,0,.46-1.08V21.15a1.52,1.52,0,0,0-.46-1.09A1.47,1.47,0,0,0,58.65,19.61Z"/><path class="cls-1" d="M85,33.39,95.16,22.11a2.46,2.46,0,0,0,.51-.62,1.07,1.07,0,0,0,.12-.51,1.3,1.3,0,0,0-.4-1,1.31,1.31,0,0,0-1-.4H86.06a3.05,3.05,0,0,0-2.22,1l-7.51,8.2v-16A1.55,1.55,0,0,0,74.8,11.2H67.63a1.57,1.57,0,0,0-1.54,1.54V47.69a1.57,1.57,0,0,0,1.54,1.54H74.8a1.55,1.55,0,0,0,1.53-1.54V38.06l9,10.2a3,3,0,0,0,2.33,1h8.48a1.37,1.37,0,0,0,1.36-1.37A1.78,1.78,0,0,0,97,46.78Z"/><path class="cls-1" d="M199,20.06a1.47,1.47,0,0,0-1.08-.45h-1.44a10.44,10.44,0,0,0-7.56,2.85V21.15a1.52,1.52,0,0,0-.46-1.09,1.47,1.47,0,0,0-1.08-.45h-6.6a1.47,1.47,0,0,0-1.08.45,1.52,1.52,0,0,0-.46,1.09V47.69a1.48,1.48,0,0,0,.46,1.08,1.44,1.44,0,0,0,1.08.46h7.17a1.44,1.44,0,0,0,1.08-.46,1.47,1.47,0,0,0,.45-1.08v-14a5.29,5.29,0,0,1,1.34-3.9,5.25,5.25,0,0,1,3.9-1.34h3.2A1.44,1.44,0,0,0,199,28a1.48,1.48,0,0,0,.46-1.08V21.15A1.52,1.52,0,0,0,199,20.06Z"/><path class="cls-1" d="M55.07,5.31a5.55,5.55,0,0,0-3.92,1.51,4.86,4.86,0,0,0,0,7.26,5.58,5.58,0,0,0,3.94,1.51A5.5,5.5,0,0,0,59,14.08a4.88,4.88,0,0,0,0-7.26A5.53,5.53,0,0,0,55.07,5.31Z"/><path class="cls-1" d="M121.18,41.75a1.82,1.82,0,0,0-1.76-1.35H114.8c-1.64,0-2.45-.91-2.45-2.74V28.44h5.75a1.57,1.57,0,0,0,1.54-1.54V21.15a1.55,1.55,0,0,0-1.54-1.54h-5.75V12.74a1.57,1.57,0,0,0-1.54-1.54h-7.16a1.55,1.55,0,0,0-1.54,1.54v6.87H99.64a1.47,1.47,0,0,0-1.08.45,1.52,1.52,0,0,0-.46,1.09V26.9A1.48,1.48,0,0,0,98.56,28a1.44,1.44,0,0,0,1.08.46h2.47V38a10.72,10.72,0,0,0,3.21,8.2,12.11,12.11,0,0,0,8.62,3h7.32a1.45,1.45,0,0,0,1.4-1.82Z"/><path class="cls-2" d="M167.23,37.77c-2.76-4.8-2.76-12.17-2.76-12.17-5.57,3.39-12.67,3.35-16.26,3a1.34,1.34,0,0,1-1.06-2,8.49,8.49,0,0,0,1-4.37c-5.33,5.11-12.68,3.28-12.68,3.28.67,4.63-1.43,9.5-2.81,12.07a1.35,1.35,0,0,1-2.3.11c-.49-.75-.95-1.47-1.36-2.19-1.57.5-2.82,2.26-1.66,6,2,6.61,7.27,5.64,7.27,5.64C138.41,56.52,145.35,58,150,58s11.53-1.52,15.37-10.82c0,0,5.23,1,7.28-5.64,1.15-3.73-.1-5.49-1.66-6-.44.73-.91,1.47-1.43,2.23A1.35,1.35,0,0,1,167.23,37.77Z"/><path class="cls-3" d="M141.89,33.05a4.52,4.52,0,1,0,4.52,4.52A4.52,4.52,0,0,0,141.89,33.05Zm.22,6.36A1.84,1.84,0,1,1,144,37.57,1.84,1.84,0,0,1,142.11,39.41Z"/><path class="cls-3" d="M158,33.05a4.52,4.52,0,1,0,4.52,4.52A4.52,4.52,0,0,0,158,33.05Zm-.16,6.36a1.84,1.84,0,1,1,1.84-1.84A1.84,1.84,0,0,1,157.84,39.41Z"/><path class="cls-1" d="M174,35.46a4.71,4.71,0,0,0-2-1.59h0c6.75-12.91.81-21.38-7.28-24,0,0-4.36-9.87-18.88-7.59-8.78,1.37-13.15,1.07-15.23.63a1.33,1.33,0,0,0-1.59,1.58,7.32,7.32,0,0,0,4.28,5.38s-13.81,7.17-5.19,24h0a4.79,4.79,0,0,0-2.07,1.6c-.83,1.12-1.59,3.2-.51,6.7,1.83,5.89,6,6.9,7.88,7C137.52,58.09,144.62,60,150,60s12.43-1.91,16.63-10.8c1.89-.14,6.06-1.15,7.88-7C175.55,38.66,174.78,36.59,174,35.46Zm-1.35,6.12c-2,6.61-7.28,5.64-7.28,5.64C161.48,56.52,154.54,58,150,58s-11.54-1.52-15.38-10.82c0,0-5.22,1-7.27-5.64-1.16-3.73.09-5.49,1.66-6,.41.72.87,1.44,1.36,2.19a1.35,1.35,0,0,0,2.3-.11c1.38-2.57,3.48-7.44,2.81-12.07,0,0,7.35,1.83,12.68-3.28a8.49,8.49,0,0,1-1,4.37,1.34,1.34,0,0,0,1.06,2c3.59.3,10.69.34,16.26-3,0,0,0,7.37,2.76,12.17a1.35,1.35,0,0,0,2.28.06c.52-.76,1-1.5,1.43-2.23C172.5,36.09,173.75,37.85,172.6,41.58Z"/><path class="cls-1" d="M158,31.1A6.46,6.46,0,0,0,151.73,36a4.54,4.54,0,0,0-1.78-.37,4.47,4.47,0,0,0-1.78.37,6.46,6.46,0,1,0,.16,2.21,2.54,2.54,0,0,1,3.24,0A6.47,6.47,0,1,0,158,31.1Zm-16.11,11a4.52,4.52,0,1,1,4.52-4.52A4.52,4.52,0,0,1,141.89,42.09Zm16.11,0a4.52,4.52,0,1,1,4.52-4.52A4.52,4.52,0,0,1,158,42.09Z"/><path class="cls-1" d="M142.11,35.73A1.84,1.84,0,1,0,144,37.57,1.84,1.84,0,0,0,142.11,35.73Z"/><path class="cls-1" d="M157.84,35.73a1.84,1.84,0,1,0,1.84,1.84A1.84,1.84,0,0,0,157.84,35.73Z"/><path class="cls-1" d="M149.11,45.84a2.68,2.68,0,0,0,1.31.35,3.1,3.1,0,0,0,1.62-.48A1,1,0,1,0,151,44a1,1,0,0,1-1,.1.71.71,0,0,1-.37-.59,1,1,0,1,0-2,0A2.65,2.65,0,0,0,149.11,45.84Z"/><path class="cls-1" d="M157.32,46.1a1,1,0,0,0-1.35.3c-2.14,3.36-6.06,3.08-8.2,2.62a1,1,0,0,0-1.16.75,1,1,0,0,0,.75,1.16,13.1,13.1,0,0,0,2.85.32,8.38,8.38,0,0,0,7.41-3.8A1,1,0,0,0,157.32,46.1Z"/><path class="cls-4" d="M141.89,33.05a4.52,4.52,0,1,0,4.52,4.52A4.52,4.52,0,0,0,141.89,33.05Zm.22,6.36A1.84,1.84,0,1,1,144,37.57,1.84,1.84,0,0,1,142.11,39.41Z"/><path class="cls-4" d="M158,33.05a4.52,4.52,0,1,0,4.52,4.52A4.52,4.52,0,0,0,158,33.05Zm-.16,6.36a1.84,1.84,0,1,1,1.84-1.84A1.84,1.84,0,0,1,157.84,39.41Z"/><path class="cls-1" d="M191,12.7a5.87,5.87,0,0,1-2.1-2.1,5.55,5.55,0,0,1-.77-2.88,5.56,5.56,0,0,1,.77-2.89,5.87,5.87,0,0,1,2.1-2.1,5.79,5.79,0,0,1,5.77,0,5.87,5.87,0,0,1,2.1,2.1,5.56,5.56,0,0,1,.77,2.89,5.55,5.55,0,0,1-.77,2.88,5.87,5.87,0,0,1-2.1,2.1,5.73,5.73,0,0,1-5.77,0Zm5.28-.77a5,5,0,0,0,1.76-1.78,4.8,4.8,0,0,0,.64-2.43,4.81,4.81,0,0,0-.64-2.44,5,5,0,0,0-1.76-1.78,4.55,4.55,0,0,0-2.39-.66,4.62,4.62,0,0,0-2.41.66,5.06,5.06,0,0,0-1.75,1.78,4.81,4.81,0,0,0-.64,2.44,4.8,4.8,0,0,0,.64,2.43,5.06,5.06,0,0,0,1.75,1.78,4.63,4.63,0,0,0,2.41.67A4.56,4.56,0,0,0,196.31,11.93Zm-4.46-1.4a.36.36,0,0,1-.1-.25V5.12a.36.36,0,0,1,.1-.25.34.34,0,0,1,.26-.1h2a2.62,2.62,0,0,1,1.58.44,1.68,1.68,0,0,1,.59,1.42,1.78,1.78,0,0,1-.3,1,1.75,1.75,0,0,1-.85.63l1.1,1.74a.37.37,0,0,1,.07.23.36.36,0,0,1-.09.24.33.33,0,0,1-.26.11h-.23a.51.51,0,0,1-.46-.31l-1.15-1.84h-1.43v1.8a.32.32,0,0,1-.1.25.3.3,0,0,1-.25.1h-.27A.34.34,0,0,1,191.85,10.53Zm2.27-3q1.23,0,1.23-.93t-1.23-.93h-1.39V7.56Z"/></svg>