<svg id="Layer_1" data-name="Layer 1" xmlns="http://www.w3.org/2000/svg" viewBox="0 0 60 60"><title>wiktor-head-black</title><path d="M53.92,35.46a4.79,4.79,0,0,0-2.06-1.59h0c6.76-12.91.81-21.38-7.28-24,0,0-4.37-9.87-18.91-7.59-8.79,1.37-13.17,1.07-15.25.63A1.33,1.33,0,0,0,8.83,4.51a7.32,7.32,0,0,0,4.28,5.38s-13.82,7.17-5.19,24h0a4.79,4.79,0,0,0-2.07,1.6c-.84,1.12-1.6,3.2-.51,6.7,1.82,5.89,6,6.9,7.89,7C17.44,58.09,24.55,60,29.88,60s12.44-1.91,16.65-10.8c1.89-.14,6.07-1.15,7.9-7C55.51,38.66,54.75,36.59,53.92,35.46Zm-1.36,6.12c-2.05,6.61-7.29,5.64-7.29,5.64C41.43,56.52,34.48,58,29.88,58S18.34,56.52,14.49,47.22c0,0-5.23,1-7.29-5.64-1.15-3.73.1-5.49,1.67-6,.42.72.87,1.44,1.36,2.19a1.35,1.35,0,0,0,2.31-.11c1.37-2.57,3.48-7.44,2.8-12.07,0,0,7.37,1.83,12.7-3.28a8.49,8.49,0,0,1-1,4.37,1.34,1.34,0,0,0,1.06,2c3.6.3,10.7.34,16.28-3,0,0,0,7.37,2.77,12.17a1.35,1.35,0,0,0,2.28.06c.52-.76,1-1.5,1.42-2.23C52.46,36.09,53.71,37.85,52.56,41.58Z"/><path d="M38,31.1A6.47,6.47,0,0,0,31.66,36a4.47,4.47,0,0,0-3.56,0,6.46,6.46,0,1,0,.16,2.21,2.54,2.54,0,0,1,3.24,0A6.48,6.48,0,1,0,38,31.1Zm-16.13,11a4.52,4.52,0,1,1,4.52-4.52A4.53,4.53,0,0,1,21.82,42.09Zm16.13,0a4.52,4.52,0,1,1,4.51-4.52A4.52,4.52,0,0,1,38,42.09Z"/><path d="M22,35.73a1.84,1.84,0,1,0,1.84,1.84A1.85,1.85,0,0,0,22,35.73Z"/><path d="M37.78,35.73a1.84,1.84,0,1,0,1.84,1.84A1.85,1.85,0,0,0,37.78,35.73Z"/><path d="M29.05,45.84a2.62,2.62,0,0,0,1.31.35A3.13,3.13,0,0,0,32,45.71,1,1,0,1,0,31,44a1,1,0,0,1-1,.1.7.7,0,0,1-.36-.59,1,1,0,0,0-2,0A2.64,2.64,0,0,0,29.05,45.84Z"/><path d="M37.26,46.1a1,1,0,0,0-1.35.3c-2.14,3.36-6.06,3.08-8.21,2.62a1,1,0,0,0-1.16.75,1,1,0,0,0,.75,1.16,13.17,13.17,0,0,0,2.85.32,8.4,8.4,0,0,0,7.42-3.8A1,1,0,0,0,37.26,46.1Z"/></svg>