<svg id="Layer_1" data-name="Layer 1" xmlns="http://www.w3.org/2000/svg" xmlns:xlink="http://www.w3.org/1999/xlink" viewBox="0 0 380 60"><defs><style>.cls-1,.cls-2{fill:#fff;}.cls-1{opacity:0.1;}.cls-3{fill:url(#linear-gradient);}.cls-4{fill:#f9c5af;}.cls-5{fill:none;}.cls-6{fill:#00294d;}.cls-7{fill:#00aeff;}</style><linearGradient id="linear-gradient" x1="30" y1="60" x2="30" gradientUnits="userSpaceOnUse"><stop offset="0" stop-color="#0086ff"/><stop offset="1" stop-color="#00beff"/></linearGradient></defs><title>wiktor-docs-logo-dark</title><rect class="cls-1" x="269.91" y="8" width="2" height="52"/><path class="cls-2" d="M222.65,22.83q-4-3.41-11-3.4t-10.95,3.4a12.8,12.8,0,0,0-4.31,9.46c0,.5-.06,1.35-.06,2.57s0,2.08.06,2.58q.34,6.16,4.2,9.52T211.7,50.3q7.2,0,11.07-3.34t4.2-9.52c.07-1,.11-1.85.11-2.58s0-1.58-.11-2.57A12.81,12.81,0,0,0,222.65,22.83ZM216.5,37.15a8,8,0,0,1-1.31,4.49,4.9,4.9,0,0,1-7,0,8,8,0,0,1-1.31-4.49l-.06-2.29.06-2.28a8,8,0,0,1,1.31-4.46,4.83,4.83,0,0,1,7,0,8,8,0,0,1,1.31,4.46q.06.57.06,2.28C216.56,36,216.54,36.77,216.5,37.15Z"/><path class="cls-2" d="M117,20H110A1.92,1.92,0,0,0,108,21.32l-4.22,12.93L99.61,21.32A1.93,1.93,0,0,0,97.67,20H92.31a1.93,1.93,0,0,0-1.94,1.37L86.16,34.25,81.94,21.32A1.92,1.92,0,0,0,80,20H72.94a1.3,1.3,0,0,0-1,.4,1.31,1.31,0,0,0-.4,1l.06.45,9.06,26.39a1.82,1.82,0,0,0,1.88,1.42h6.49a1.94,1.94,0,0,0,1.88-1.42l4-12,4.05,12a1.94,1.94,0,0,0,1.88,1.42h6.49a1.82,1.82,0,0,0,1.88-1.42l9.06-26.39.06-.45a1.31,1.31,0,0,0-.4-1A1.3,1.3,0,0,0,117,20Z"/><path class="cls-2" d="M130.64,20h-7.18a1.57,1.57,0,0,0-1.54,1.54V48a1.55,1.55,0,0,0,1.54,1.54h7.18A1.55,1.55,0,0,0,132.18,48V21.49A1.57,1.57,0,0,0,130.64,20Z"/><path class="cls-2" d="M157.07,33.74l10.14-11.28a2.64,2.64,0,0,0,.51-.63,1.07,1.07,0,0,0,.12-.51,1.35,1.35,0,0,0-.4-1,1.31,1.31,0,0,0-1-.4h-8.38a3.05,3.05,0,0,0-2.22,1l-7.52,8.21v-16a1.57,1.57,0,0,0-1.54-1.54h-7.18a1.57,1.57,0,0,0-1.54,1.54V48a1.55,1.55,0,0,0,1.54,1.54h7.18A1.55,1.55,0,0,0,148.35,48V38.41l9.06,10.2a3,3,0,0,0,2.34,1h8.49a1.35,1.35,0,0,0,1.36-1.36,1.77,1.77,0,0,0-.57-1.09Z"/><path class="cls-2" d="M249.46,20H248a10.51,10.51,0,0,0-7.58,2.85V21.49A1.55,1.55,0,0,0,238.91,20h-6.62a1.55,1.55,0,0,0-1.53,1.54V48a1.54,1.54,0,0,0,1.53,1.54h7.18A1.54,1.54,0,0,0,241,48V34a5.33,5.33,0,0,1,1.34-3.91,5.31,5.31,0,0,1,3.91-1.34h3.2A1.55,1.55,0,0,0,251,27.25V21.49A1.57,1.57,0,0,0,249.46,20Z"/><path class="cls-2" d="M127.05,5.65a5.55,5.55,0,0,0-3.92,1.51,4.84,4.84,0,0,0,0,7.26,5.83,5.83,0,0,0,7.85,0,4.88,4.88,0,0,0,0-7.26A5.54,5.54,0,0,0,127.05,5.65Z"/><path class="cls-2" d="M193.27,42.11a1.82,1.82,0,0,0-1.76-1.36h-4.63c-1.64,0-2.45-.91-2.45-2.73V28.78h5.76a1.49,1.49,0,0,0,1.08-.45,1.52,1.52,0,0,0,.46-1.08V21.49a1.48,1.48,0,0,0-.46-1.08,1.46,1.46,0,0,0-1.08-.46h-5.76V13.08a1.57,1.57,0,0,0-1.54-1.54h-7.18a1.55,1.55,0,0,0-1.54,1.54V20H171.7a1.55,1.55,0,0,0-1.54,1.54v5.76a1.54,1.54,0,0,0,1.54,1.53h2.47v9.58a10.67,10.67,0,0,0,3.22,8.2,12.06,12.06,0,0,0,8.63,3h7.33a1.45,1.45,0,0,0,1.41-1.81Z"/><path class="cls-2" d="M244.24,13.39h.24a.34.34,0,0,0,.23-.08.32.32,0,0,0,.09-.23v-1.6h1.27l1,1.64a.46.46,0,0,0,.41.27h.2a.3.3,0,0,0,.24-.09.35.35,0,0,0,.08-.22.32.32,0,0,0-.06-.2l-1-1.56a1.51,1.51,0,0,0,.76-.56,1.6,1.6,0,0,0,.27-.94,1.47,1.47,0,0,0-.53-1.27,2.31,2.31,0,0,0-1.41-.39h-1.83a.3.3,0,0,0-.23.09.28.28,0,0,0-.08.23v4.6a.31.31,0,0,0,.08.23A.34.34,0,0,0,244.24,13.39ZM244.8,9H246c.73,0,1.1.28,1.1.83s-.37.83-1.1.83H244.8Z"/><path class="cls-2" d="M243.28,15.24a5.09,5.09,0,0,0,5.15,0,5.11,5.11,0,0,0,1.88-1.87,5.17,5.17,0,0,0,0-5.16,5.11,5.11,0,0,0-1.88-1.87,5.15,5.15,0,0,0-5.15,0,5.19,5.19,0,0,0-1.88,1.87,5.17,5.17,0,0,0,0,5.16A5.19,5.19,0,0,0,243.28,15.24Zm-1.13-6.62A4.35,4.35,0,0,1,243.71,7,4.19,4.19,0,0,1,248,7a4.35,4.35,0,0,1,1.56,1.6,4.35,4.35,0,0,1,0,4.34,4.35,4.35,0,0,1-1.56,1.6,4.19,4.19,0,0,1-4.29,0,4.35,4.35,0,0,1-1.56-1.6,4.35,4.35,0,0,1,0-4.34Z"/><rect class="cls-3" width="60" height="60" rx="15"/><path class="cls-4" d="M44.67,36.46c-2.34-4.07-2.34-10.32-2.34-10.32C37.6,29,31.58,29,28.53,28.73a1.13,1.13,0,0,1-.9-1.66,7.21,7.21,0,0,0,.81-3.71c-4.52,4.33-10.77,2.78-10.77,2.78.58,3.93-1.21,8.06-2.38,10.24a1.14,1.14,0,0,1-1.95.09c-.42-.63-.8-1.25-1.16-1.85-1.33.41-2.39,1.91-1.41,5.07C12.51,45.3,17,44.47,17,44.47c3.26,7.89,9.15,9.18,13.05,9.18s9.79-1.29,13-9.18c0,0,4.44.83,6.18-4.78,1-3.16-.08-4.65-1.41-5.07-.37.62-.77,1.25-1.21,1.9A1.15,1.15,0,0,1,44.67,36.46Z"/><path class="cls-5" d="M23.16,32.46A3.84,3.84,0,1,0,27,36.3,3.84,3.84,0,0,0,23.16,32.46Zm.19,5.4a1.57,1.57,0,1,1,1.56-1.56A1.56,1.56,0,0,1,23.35,37.86Z"/><path class="cls-5" d="M36.84,32.46a3.84,3.84,0,1,0,3.83,3.84A3.84,3.84,0,0,0,36.84,32.46Zm-.14,5.4a1.57,1.57,0,1,1,1.56-1.56A1.56,1.56,0,0,1,36.7,37.86Z"/><path class="cls-6" d="M50.38,34.5a4,4,0,0,0-1.74-1.34h0c5.73-10.94.68-18.13-6.18-20.33,0,0-3.7-8.37-16-6.44C19,7.55,15.27,7.3,13.5,6.92a1.13,1.13,0,0,0-1.35,1.34,6.2,6.2,0,0,0,3.63,4.56S4.06,18.9,11.38,33.15h0A4,4,0,0,0,9.62,34.5c-.71,1-1.35,2.72-.43,5.68,1.55,5,5.09,5.85,6.69,6,3.57,7.53,9.6,9.15,14.12,9.15s10.55-1.62,14.12-9.15c1.6-.13,5.14-1,6.69-6C51.73,37.22,51.08,35.46,50.38,34.5Zm-1.15,5.19c-1.74,5.61-6.18,4.78-6.18,4.78-3.26,7.89-9.15,9.18-13,9.18s-9.79-1.29-13-9.18c0,0-4.44.83-6.18-4.78-1-3.16.08-4.66,1.41-5.07.36.6.74,1.22,1.16,1.85a1.14,1.14,0,0,0,1.95-.09c1.17-2.18,3-6.31,2.38-10.24,0,0,6.25,1.55,10.77-2.78a7.21,7.21,0,0,1-.81,3.71,1.13,1.13,0,0,0,.9,1.66c3,.25,9.07.29,13.8-2.59,0,0,0,6.25,2.34,10.32a1.15,1.15,0,0,0,1.94.06c.44-.65.84-1.28,1.21-1.9C49.15,35,50.21,36.53,49.23,39.69Z"/><path class="cls-6" d="M36.84,30.81A5.49,5.49,0,0,0,31.51,35a3.72,3.72,0,0,0-3,0,5.49,5.49,0,1,0,.13,1.87,2.17,2.17,0,0,1,2.76,0,5.49,5.49,0,1,0,5.46-6.05ZM23.16,40.13A3.84,3.84,0,1,1,27,36.3,3.84,3.84,0,0,1,23.16,40.13Zm13.68,0a3.84,3.84,0,1,1,3.83-3.83A3.84,3.84,0,0,1,36.84,40.13Z"/><path class="cls-6" d="M23.35,34.73a1.57,1.57,0,1,0,1.56,1.57A1.57,1.57,0,0,0,23.35,34.73Z"/><path class="cls-6" d="M36.7,34.73a1.57,1.57,0,1,0,1.56,1.57A1.56,1.56,0,0,0,36.7,34.73Z"/><path class="cls-6" d="M29.29,43.31a2.33,2.33,0,0,0,1.11.29,2.67,2.67,0,0,0,1.38-.4.83.83,0,0,0,.28-1.14.82.82,0,0,0-1.13-.28.83.83,0,0,1-.82.09.63.63,0,0,1-.31-.51.83.83,0,0,0-1.66,0A2.25,2.25,0,0,0,29.29,43.31Z"/><path class="cls-6" d="M36.26,43.52a.84.84,0,0,0-1.15.26C33.3,46.63,30,46.4,28.15,46a.84.84,0,0,0-1,.64.82.82,0,0,0,.63,1,11.57,11.57,0,0,0,2.42.27,7.1,7.1,0,0,0,6.29-3.22A.84.84,0,0,0,36.26,43.52Z"/><path class="cls-2" d="M23.16,32.46A3.84,3.84,0,1,0,27,36.3,3.84,3.84,0,0,0,23.16,32.46Zm.19,5.4a1.57,1.57,0,1,1,1.56-1.56A1.56,1.56,0,0,1,23.35,37.86Z"/><path class="cls-2" d="M36.84,32.46a3.84,3.84,0,1,0,3.83,3.84A3.84,3.84,0,0,0,36.84,32.46Zm-.14,5.4a1.57,1.57,0,1,1,1.56-1.56A1.56,1.56,0,0,1,36.7,37.86Z"/><path class="cls-7" d="M293,44.29a.69.69,0,0,1-.21-.51V24.25a.76.76,0,0,1,.19-.54.69.69,0,0,1,.53-.21h7.32q8.85,0,9,8.16.06,1.74.06,2.34t-.06,2.31c-.08,2.8-.84,4.87-2.27,6.19s-3.63,2-6.61,2h-7.47A.69.69,0,0,1,293,44.29ZM300.81,41a4.94,4.94,0,0,0,3.6-1.11,5.27,5.27,0,0,0,1.17-3.69q.06-1.8.06-2.25t-.06-2.22a5.11,5.11,0,0,0-1.23-3.62A5.13,5.13,0,0,0,300.66,27H297V41Z"/><path class="cls-7" d="M318.36,42.73a8.24,8.24,0,0,1-2.4-6.15q0-.87,0-2.55t0-2.58a8.21,8.21,0,0,1,2.46-6.12,10.46,10.46,0,0,1,12.65,0,8.18,8.18,0,0,1,2.47,6.12q.06,1.74.06,2.58t-.06,2.55a8.21,8.21,0,0,1-2.41,6.15,10.88,10.88,0,0,1-12.77,0Zm9.57-2.61a5.4,5.4,0,0,0,1.26-3.69q.06-1.8.06-2.43t-.06-2.43a5.31,5.31,0,0,0-1.29-3.67,4.72,4.72,0,0,0-6.33,0,5.21,5.21,0,0,0-1.26,3.67q0,.87,0,2.43t0,2.43a5.3,5.3,0,0,0,1.25,3.68,4.81,4.81,0,0,0,6.37,0Z"/><path class="cls-7" d="M342,42.69a8.3,8.3,0,0,1-2.41-6c0-.54,0-1.42,0-2.64s0-2.14,0-2.7a8.28,8.28,0,0,1,2.43-6,9,9,0,0,1,6.39-2.15,11,11,0,0,1,4.65.92,7.37,7.37,0,0,1,3.07,2.5,6.51,6.51,0,0,1,1.16,3.57v.06a.53.53,0,0,1-.2.41.66.66,0,0,1-.43.16h-2.91a.77.77,0,0,1-.54-.16,1.2,1.2,0,0,1-.3-.59,4.27,4.27,0,0,0-1.56-2.62,5.11,5.11,0,0,0-2.94-.77c-2.87,0-4.35,1.6-4.47,4.8q0,.81,0,2.49t0,2.55c.12,3.2,1.6,4.8,4.47,4.8a5.09,5.09,0,0,0,2.92-.76,4.26,4.26,0,0,0,1.58-2.63,1.16,1.16,0,0,1,.3-.58.78.78,0,0,1,.54-.17h2.91a.65.65,0,0,1,.46.18.51.51,0,0,1,.17.45,6.51,6.51,0,0,1-1.16,3.57,7.29,7.29,0,0,1-3.07,2.5,10.84,10.84,0,0,1-4.65.92A9,9,0,0,1,342,42.69Z"/><path class="cls-7" d="M366.83,44a6.86,6.86,0,0,1-2.91-2.13A5,5,0,0,1,362.87,39a.66.66,0,0,1,.18-.44.62.62,0,0,1,.45-.19h2.73a.91.91,0,0,1,.54.15,1.59,1.59,0,0,1,.39.42,3.06,3.06,0,0,0,1.36,1.71,5.36,5.36,0,0,0,2.93.69,5.91,5.91,0,0,0,3.17-.7,2.23,2.23,0,0,0,1.06-1.94,1.83,1.83,0,0,0-.54-1.35,4.69,4.69,0,0,0-1.64-.95c-.73-.26-1.81-.59-3.25-1a12.78,12.78,0,0,1-5.19-2.22,4.87,4.87,0,0,1-1.65-4,5.3,5.3,0,0,1,1-3.11A6.4,6.4,0,0,1,367.12,24a10.24,10.24,0,0,1,4.15-.78,9.92,9.92,0,0,1,4.31.87,7.07,7.07,0,0,1,2.75,2.18,4.8,4.8,0,0,1,1,2.59.64.64,0,0,1-.18.44.58.58,0,0,1-.45.19h-2.85a.89.89,0,0,1-.9-.54,2.31,2.31,0,0,0-1.17-1.6,5.44,5.44,0,0,0-5.12,0,2.06,2.06,0,0,0-.94,1.83,2,2,0,0,0,.48,1.35,3.92,3.92,0,0,0,1.5,1,27.45,27.45,0,0,0,3,.91,20.43,20.43,0,0,1,4.24,1.35,5.49,5.49,0,0,1,2.33,1.89A5.2,5.2,0,0,1,380,38.5a5.55,5.55,0,0,1-1.06,3.38,6.61,6.61,0,0,1-3,2.17,12.39,12.39,0,0,1-4.49.75A11.86,11.86,0,0,1,366.83,44Z"/></svg>