<svg id="Layer_1" data-name="Layer 1" xmlns="http://www.w3.org/2000/svg" xmlns:xlink="http://www.w3.org/1999/xlink" viewBox="0 0 206 60"><defs><style>.cls-1{fill:#002446;}.cls-2{fill:url(#linear-gradient);}.cls-3{fill:#f9c5af;}.cls-4{fill:none;}.cls-5{fill:#00294d;}.cls-6{fill:#fff;}.cls-7{font-size:12px;fill:#00aeff;font-family:Rubik-Medium, Rubik;font-weight:500;letter-spacing:0.1em;}.cls-8{letter-spacing:0.1em;}.cls-9{letter-spacing:0.1em;}.cls-10{letter-spacing:0.09em;}.cls-11{letter-spacing:0.09em;}.cls-12{letter-spacing:0.1em;}.cls-13{letter-spacing:0.03em;}.cls-14{letter-spacing:0.1em;}.cls-15{letter-spacing:0.1em;}.cls-16{letter-spacing:0.1em;}.cls-17{letter-spacing:0.1em;}</style><linearGradient id="linear-gradient" x1="30" y1="60" x2="30" gradientUnits="userSpaceOnUse"><stop offset="0" stop-color="#0086ff"/><stop offset="1" stop-color="#00beff"/></linearGradient></defs><title>wiktor-docs-logo-light</title><path class="cls-1" d="M184.11,16.91c-2.05-1.75-4.86-2.62-8.45-2.62s-6.41.87-8.46,2.62a9.85,9.85,0,0,0-3.33,7.31c0,.38-.05,1.05-.05,2s0,1.6.05,2a10,10,0,0,0,3.24,7.35q3,2.6,8.55,2.59t8.54-2.59a9.94,9.94,0,0,0,3.24-7.35q.09-1.14.09-2c0-.56,0-1.22-.09-2A9.85,9.85,0,0,0,184.11,16.91ZM179.36,28a6.11,6.11,0,0,1-1,3.47,3.8,3.8,0,0,1-5.39,0A6.11,6.11,0,0,1,172,28l0-1.76,0-1.77A6.11,6.11,0,0,1,173,21a3.73,3.73,0,0,1,5.39,0,6.11,6.11,0,0,1,1,3.44c0,.3,0,.88,0,1.77S179.39,27.68,179.36,28Z"/><path class="cls-1" d="M102.56,14.69H97.11a1.47,1.47,0,0,0-1.5,1.06l-3.26,10-3.25-10a1.49,1.49,0,0,0-1.5-1.06H83.47A1.47,1.47,0,0,0,82,15.75l-3.26,10-3.25-10A1.49,1.49,0,0,0,74,14.69H68.51a1,1,0,0,0-.75.31,1,1,0,0,0-.31.75l0,.35,7,20.37a1.41,1.41,0,0,0,1.45,1.1h5a1.5,1.5,0,0,0,1.45-1.1l3.12-9.24,3.13,9.24a1.49,1.49,0,0,0,1.45,1.1h5a1.41,1.41,0,0,0,1.45-1.1l7-20.37.05-.35a1,1,0,0,0-.31-.75A1,1,0,0,0,102.56,14.69Z"/><path class="cls-1" d="M113.06,14.69h-5.54a1.15,1.15,0,0,0-.84.35,1.18,1.18,0,0,0-.35.84v20.5a1.15,1.15,0,0,0,.35.84,1.11,1.11,0,0,0,.84.35h5.54a1.2,1.2,0,0,0,1.19-1.19V15.88a1.2,1.2,0,0,0-1.19-1.19Z"/><path class="cls-1" d="M133.47,25.34l7.83-8.71a2.18,2.18,0,0,0,.4-.49.8.8,0,0,0,.08-.39,1.05,1.05,0,0,0-.3-.75,1,1,0,0,0-.75-.31h-6.47a2.38,2.38,0,0,0-1.72.75l-5.8,6.34V9.38a1.21,1.21,0,0,0-1.19-1.18H120a1.2,1.2,0,0,0-1.18,1.18v27A1.2,1.2,0,0,0,120,37.57h5.55a1.1,1.1,0,0,0,.83-.35,1.12,1.12,0,0,0,.36-.84V29l7,7.87a2.28,2.28,0,0,0,1.81.75h6.55a1.06,1.06,0,0,0,1.06-1,1.37,1.37,0,0,0-.44-.84Z"/><path class="cls-1" d="M204.81,14.69H203.7a8.1,8.1,0,0,0-5.85,2.2v-1a1.2,1.2,0,0,0-1.19-1.19h-5.1a1.15,1.15,0,0,0-.84.35,1.18,1.18,0,0,0-.35.84v20.5a1.15,1.15,0,0,0,.35.84,1.11,1.11,0,0,0,.84.35h5.54a1.2,1.2,0,0,0,1.19-1.19V25.56a4.07,4.07,0,0,1,1-3,4.1,4.1,0,0,1,3-1h2.47A1.2,1.2,0,0,0,206,20.32V15.88a1.2,1.2,0,0,0-1.19-1.19Z"/><path class="cls-1" d="M110.29,3.65a4.29,4.29,0,0,0-3,1.16,3.75,3.75,0,0,0,0,5.61,4.32,4.32,0,0,0,3,1.17,4.25,4.25,0,0,0,3-1.17,3.75,3.75,0,0,0,0-5.61A4.25,4.25,0,0,0,110.29,3.65Z"/><path class="cls-1" d="M161.42,31.8a1.4,1.4,0,0,0-1.36-1.05h-3.57c-1.27,0-1.9-.7-1.9-2.11V21.51H159a1.2,1.2,0,0,0,1.19-1.19V15.88A1.2,1.2,0,0,0,159,14.69h-4.45V9.38A1.2,1.2,0,0,0,153.4,8.2h-5.54a1.21,1.21,0,0,0-1.19,1.18v5.31h-1.91a1.2,1.2,0,0,0-1.18,1.19v4.44a1.2,1.2,0,0,0,1.18,1.19h1.91V28.9a8.26,8.26,0,0,0,2.49,6.34,9.33,9.33,0,0,0,6.67,2.33h5.66a1.11,1.11,0,0,0,1.08-1.4Z"/><path class="cls-1" d="M200.78,9.63H201a.24.24,0,0,0,.17-.07.21.21,0,0,0,.07-.18V8.15h1l.8,1.27a.36.36,0,0,0,.32.21h.15a.22.22,0,0,0,.18-.08.24.24,0,0,0,.06-.17.24.24,0,0,0,0-.15L202.9,8a1.22,1.22,0,0,0,.58-.43,1.26,1.26,0,0,0,.21-.73,1.14,1.14,0,0,0-.4-1,1.84,1.84,0,0,0-1.1-.3h-1.41a.21.21,0,0,0-.24.24V9.38a.24.24,0,0,0,.06.18A.29.29,0,0,0,200.78,9.63Zm.43-3.4h1c.57,0,.85.21.85.64s-.28.64-.85.64h-1Z"/><path class="cls-1" d="M200,11.06a4,4,0,0,0,5.42-1.45,3.94,3.94,0,0,0,0-4A3.93,3.93,0,0,0,204,4.18a4,4,0,0,0-4,0,4,4,0,0,0-1.45,1.45,3.94,3.94,0,0,0,0,4A4,4,0,0,0,200,11.06Zm-.88-5.12a3.48,3.48,0,0,1,1.21-1.23A3.22,3.22,0,0,1,202,4.25a3.18,3.18,0,0,1,1.65.46,3.48,3.48,0,0,1,1.21,1.23,3.36,3.36,0,0,1,0,3.36,3.48,3.48,0,0,1-1.21,1.23A3.17,3.17,0,0,1,202,11a3.21,3.21,0,0,1-1.66-.45,3.48,3.48,0,0,1-1.21-1.23,3.43,3.43,0,0,1,0-3.36Z"/><rect class="cls-2" width="60" height="60" rx="15"/><path class="cls-3" d="M44.67,36.46c-2.34-4.07-2.34-10.32-2.34-10.32C37.6,29,31.58,29,28.53,28.73a1.13,1.13,0,0,1-.9-1.66,7.21,7.21,0,0,0,.81-3.71c-4.52,4.33-10.77,2.78-10.77,2.78.58,3.93-1.21,8.06-2.38,10.24a1.14,1.14,0,0,1-1.95.09c-.42-.63-.8-1.25-1.16-1.85-1.33.41-2.39,1.91-1.41,5.07C12.51,45.3,17,44.47,17,44.47c3.26,7.89,9.15,9.18,13.05,9.18s9.79-1.29,13-9.18c0,0,4.44.83,6.18-4.78,1-3.16-.08-4.65-1.41-5.07-.37.62-.77,1.25-1.21,1.9A1.15,1.15,0,0,1,44.67,36.46Z"/><path class="cls-4" d="M23.16,32.46A3.84,3.84,0,1,0,27,36.3,3.84,3.84,0,0,0,23.16,32.46Zm.19,5.4a1.57,1.57,0,1,1,1.56-1.56A1.56,1.56,0,0,1,23.35,37.86Z"/><path class="cls-4" d="M36.84,32.46a3.84,3.84,0,1,0,3.83,3.84A3.84,3.84,0,0,0,36.84,32.46Zm-.14,5.4a1.57,1.57,0,1,1,1.56-1.56A1.56,1.56,0,0,1,36.7,37.86Z"/><path class="cls-5" d="M50.38,34.5a4,4,0,0,0-1.74-1.34h0c5.73-10.94.68-18.13-6.18-20.33,0,0-3.7-8.37-16-6.44C19,7.55,15.27,7.3,13.5,6.92a1.13,1.13,0,0,0-1.35,1.34,6.2,6.2,0,0,0,3.63,4.56S4.06,18.9,11.38,33.15h0A4,4,0,0,0,9.62,34.5c-.71,1-1.35,2.72-.43,5.68,1.55,5,5.09,5.85,6.69,6,3.57,7.53,9.6,9.15,14.12,9.15s10.55-1.62,14.12-9.15c1.6-.13,5.14-1,6.69-6C51.73,37.22,51.08,35.46,50.38,34.5Zm-1.15,5.19c-1.74,5.61-6.18,4.78-6.18,4.78-3.26,7.89-9.15,9.18-13,9.18s-9.79-1.29-13-9.18c0,0-4.44.83-6.18-4.78-1-3.16.08-4.66,1.41-5.07.36.6.74,1.22,1.16,1.85a1.14,1.14,0,0,0,1.95-.09c1.17-2.18,3-6.31,2.38-10.24,0,0,6.25,1.55,10.77-2.78a7.21,7.21,0,0,1-.81,3.71,1.13,1.13,0,0,0,.9,1.66c3,.25,9.07.29,13.8-2.59,0,0,0,6.25,2.34,10.32a1.15,1.15,0,0,0,1.94.06c.44-.65.84-1.28,1.21-1.9C49.15,35,50.21,36.53,49.23,39.69Z"/><path class="cls-5" d="M36.84,30.81A5.49,5.49,0,0,0,31.51,35a3.72,3.72,0,0,0-3,0,5.49,5.49,0,1,0,.13,1.87,2.17,2.17,0,0,1,2.76,0,5.49,5.49,0,1,0,5.46-6.05ZM23.16,40.13A3.84,3.84,0,1,1,27,36.3,3.84,3.84,0,0,1,23.16,40.13Zm13.68,0a3.84,3.84,0,1,1,3.83-3.83A3.84,3.84,0,0,1,36.84,40.13Z"/><path class="cls-5" d="M23.35,34.73a1.57,1.57,0,1,0,1.56,1.57A1.57,1.57,0,0,0,23.35,34.73Z"/><path class="cls-5" d="M36.7,34.73a1.57,1.57,0,1,0,1.56,1.57A1.56,1.56,0,0,0,36.7,34.73Z"/><path class="cls-5" d="M29.29,43.31a2.33,2.33,0,0,0,1.11.29,2.67,2.67,0,0,0,1.38-.4.83.83,0,0,0,.28-1.14.82.82,0,0,0-1.13-.28.83.83,0,0,1-.82.09.63.63,0,0,1-.31-.51.83.83,0,0,0-1.66,0A2.25,2.25,0,0,0,29.29,43.31Z"/><path class="cls-5" d="M36.26,43.52a.84.84,0,0,0-1.15.26C33.3,46.63,30,46.4,28.15,46a.84.84,0,0,0-1,.64.82.82,0,0,0,.63,1,11.57,11.57,0,0,0,2.42.27,7.1,7.1,0,0,0,6.29-3.22A.84.84,0,0,0,36.26,43.52Z"/><path class="cls-6" d="M23.16,32.46A3.84,3.84,0,1,0,27,36.3,3.84,3.84,0,0,0,23.16,32.46Zm.19,5.4a1.57,1.57,0,1,1,1.56-1.56A1.56,1.56,0,0,1,23.35,37.86Z"/><path class="cls-6" d="M36.84,32.46a3.84,3.84,0,1,0,3.83,3.84A3.84,3.84,0,0,0,36.84,32.46Zm-.14,5.4a1.57,1.57,0,1,1,1.56-1.56A1.56,1.56,0,0,1,36.7,37.86Z"/><text class="cls-7" transform="translate(69.01 53.17)">D<tspan class="cls-8" x="9.63" y="0">O</tspan><tspan class="cls-9" x="19.18" y="0">C</tspan><tspan class="cls-10" x="28.56" y="0">U</tspan><tspan class="cls-11" x="38.26" y="0">ME</tspan><tspan class="cls-12" x="57.71" y="0">N</tspan><tspan class="cls-13" x="67.44" y="0">TA</tspan><tspan class="cls-14" x="83.83" y="0">T</tspan><tspan class="cls-15" x="92.33" y="0">I</tspan><tspan class="cls-16" x="97.1" y="0">O</tspan><tspan class="cls-17" x="106.59" y="0">N</tspan></text></svg>