<svg id="Layer_1" data-name="Layer 1" xmlns="http://www.w3.org/2000/svg" viewBox="0 0 60 60"><defs><style>.cls-1{fill:#fac8af;}.cls-2{fill:none;}.cls-3{fill:#002446;}.cls-4{fill:#fff;}</style></defs><title>wiktor-head</title><path class="cls-1" d="M47.19,37.77C44.42,33,44.42,25.6,44.42,25.6,38.84,29,31.74,29,28.14,28.65a1.34,1.34,0,0,1-1.06-2,8.49,8.49,0,0,0,1-4.37c-5.33,5.11-12.7,3.28-12.7,3.28.68,4.63-1.43,9.5-2.8,12.07a1.35,1.35,0,0,1-2.31.11c-.49-.75-.94-1.47-1.36-2.19-1.57.5-2.82,2.26-1.67,6,2.06,6.61,7.29,5.64,7.29,5.64C18.34,56.52,25.28,58,29.88,58s11.55-1.52,15.39-10.82c0,0,5.24,1,7.29-5.64,1.15-3.73-.1-5.49-1.67-6-.43.73-.9,1.47-1.42,2.23A1.35,1.35,0,0,1,47.19,37.77Z"/><path class="cls-2" d="M21.82,33.05a4.52,4.52,0,1,0,4.52,4.52A4.53,4.53,0,0,0,21.82,33.05ZM22,39.41a1.84,1.84,0,1,1,1.84-1.84A1.84,1.84,0,0,1,22,39.41Z"/><path class="cls-2" d="M38,33.05a4.52,4.52,0,1,0,4.51,4.52A4.52,4.52,0,0,0,38,33.05Zm-.17,6.36a1.84,1.84,0,1,1,1.84-1.84A1.84,1.84,0,0,1,37.78,39.41Z"/><path class="cls-3" d="M53.94,35.46a4.74,4.74,0,0,0-2.06-1.59h0c6.76-12.91.81-21.38-7.28-24,0,0-4.37-9.87-18.91-7.59-8.79,1.37-13.16,1.07-15.25.63A1.33,1.33,0,0,0,8.85,4.51a7.32,7.32,0,0,0,4.28,5.38s-13.82,7.17-5.19,24h0a4.79,4.79,0,0,0-2.07,1.6c-.83,1.12-1.59,3.2-.51,6.7,1.83,5.89,6,6.9,7.89,7C17.46,58.09,24.57,60,29.9,60s12.45-1.91,16.66-10.8c1.89-.14,6.06-1.15,7.89-7C55.53,38.66,54.77,36.59,53.94,35.46Zm-1.36,6.12c-2,6.61-7.28,5.64-7.28,5.64C41.45,56.52,34.51,58,29.9,58S18.36,56.52,14.51,47.22c0,0-5.23,1-7.28-5.64-1.16-3.73.1-5.49,1.66-6,.42.72.87,1.44,1.37,2.19a1.35,1.35,0,0,0,2.3-.11C13.93,35.1,16,30.23,15.37,25.6c0,0,7.36,1.83,12.69-3.28a8.37,8.37,0,0,1-1,4.37,1.34,1.34,0,0,0,1.07,2c3.59.3,10.7.34,16.27-3,0,0,0,7.37,2.77,12.17a1.35,1.35,0,0,0,2.28.06c.52-.76,1-1.5,1.43-2.23C52.48,36.09,53.74,37.85,52.58,41.58Z"/><path class="cls-3" d="M38,31.1A6.46,6.46,0,0,0,31.69,36a4.49,4.49,0,0,0-3.57,0,6.46,6.46,0,1,0,.16,2.21,2.55,2.55,0,0,1,3.25,0A6.47,6.47,0,1,0,38,31.1Zm-16.13,11a4.52,4.52,0,1,1,4.52-4.52A4.53,4.53,0,0,1,21.84,42.09Zm16.13,0a4.52,4.52,0,1,1,4.52-4.52A4.53,4.53,0,0,1,38,42.09Z"/><path class="cls-3" d="M22.06,35.73a1.84,1.84,0,1,0,1.84,1.84A1.84,1.84,0,0,0,22.06,35.73Z"/><path class="cls-3" d="M37.81,35.73a1.84,1.84,0,1,0,1.84,1.84A1.84,1.84,0,0,0,37.81,35.73Z"/><path class="cls-3" d="M29.07,45.84a2.65,2.65,0,0,0,1.31.35A3.1,3.1,0,0,0,32,45.71,1,1,0,1,0,31,44a1,1,0,0,1-1,.1.72.72,0,0,1-.36-.59,1,1,0,0,0-2,0A2.64,2.64,0,0,0,29.07,45.84Z"/><path class="cls-3" d="M37.28,46.1a1,1,0,0,0-1.35.3c-2.14,3.36-6.06,3.08-8.2,2.62a1,1,0,1,0-.42,1.91,13.19,13.19,0,0,0,2.86.32,8.38,8.38,0,0,0,7.41-3.8A1,1,0,0,0,37.28,46.1Z"/><path class="cls-4" d="M21.82,33.05a4.52,4.52,0,1,0,4.52,4.52A4.53,4.53,0,0,0,21.82,33.05ZM22,39.41a1.84,1.84,0,1,1,1.84-1.84A1.84,1.84,0,0,1,22,39.41Z"/><path class="cls-4" d="M38,33.05a4.52,4.52,0,1,0,4.51,4.52A4.52,4.52,0,0,0,38,33.05Zm-.17,6.36a1.84,1.84,0,1,1,1.84-1.84A1.84,1.84,0,0,1,37.78,39.41Z"/></svg>